# xmcd
#
# Track frame offsets:
#  150
#  28955
#  46872
#  68690
#  89960
#  108487
#  124117
#  133305
#  150802
#  158377
#  178227
#  200932
#  212152
#
# Disc length: 3005 seconds
#
# Revision: 0
# Processed by: cddbd v1.4b41PL3 Copyright (c) Steve Scherf et al.
# Submitted via: AltoMP3_Maker 3.0
#
DISCID=bd0bbb0d
DTITLE=Supergenerous - Supergenerous
DYEAR=1900
DGENRE=
TTITLE0=The Legend of Johnny Cactus
TTITLE1=Sáo Paulo Slim
TTITLE2=Dreaming of a Train/Take the A Train
TTITLE3=Home On the Range
TTITLE4=God's Parking Lot
TTITLE5=Steinbeck
TTITLE6=Marisa O'Brien
TTITLE7=Brohemia/Calhoun
TTITLE8=Pelicula
TTITLE9=Caravan/Camel, Sand and Caravan
TTITLE10=A Sigh and a Shiver
TTITLE11=Love Is All Around
TTITLE12=Whistling In the Rain
EXTD=
EXTT0=
EXTT1=
EXTT2=
EXTT3=
EXTT4=
EXTT5=
EXTT6=
EXTT7=
EXTT8=
EXTT9=
EXTT10=
EXTT11=
EXTT12=
PLAYORDER=
